<svg width="64" height="64" viewBox="0 0 64 64" fill="none" xmlns="http://www.w3.org/2000/svg">
<rect width="64" height="64" rx="10" fill="#FCEBED"/>
<path d="M32.2654 17C27.7171 17.0775 23.3759 18.9117 20.1562 22.1169C16.9363 25.3219 15.0891 29.6476 15.0032 34.1843C14.9169 38.7206 16.5987 43.1132 19.6945 46.4375L20.2157 47L20.861 46.5846C24.2842 44.3567 28.2802 43.1629 32.368 43.1474C36.3168 43.15 40.1784 44.3046 43.4777 46.4685L44.1465 46.9047L44.6694 46.3024V46.3027C47.4836 43.0266 49.0209 38.8493 48.9998 34.5356C48.9998 24.7028 41.6487 17.0006 32.2646 17.0006L32.2654 17ZM43.7844 44.5063C40.3415 42.4255 36.3933 41.3247 32.3683 41.3232C28.1968 41.3358 24.1073 42.4814 20.5392 44.6367C17.9684 41.5988 16.649 37.7011 16.848 33.7308C17.0469 29.7605 18.7488 26.0136 21.6107 23.2465C24.4721 20.4795 28.2801 18.8986 32.2654 18.8232C40.624 18.8232 47.1722 25.7246 47.1722 34.5347C47.1893 38.1422 45.997 41.6519 43.7846 44.506L43.7844 44.5063Z" fill="#EB6677"/>
<path d="M39.8483 25.0996L34.4401 30.4944V30.4942C33.7676 29.9334 32.9202 29.6239 32.0435 29.6192C31.0049 29.606 30.0039 30.0085 29.2647 30.7366C28.5253 31.4645 28.1094 32.4576 28.1094 33.4937C28.1094 34.5299 28.5253 35.523 29.2647 36.2511C30.0039 36.9792 31.0049 37.3814 32.0435 37.3682C33.0701 37.3738 34.0556 36.9663 34.7771 36.2385C35.4989 35.5104 35.8963 34.5231 35.8794 33.4995C35.8791 32.9686 35.7703 32.4435 35.5591 31.9565L41.1407 26.3887L39.8483 25.0996ZM32.0431 35.5449C31.4894 35.5581 30.9535 35.3478 30.5573 34.9616C30.1607 34.5755 29.9372 34.0463 29.9372 33.4937C29.9372 32.9411 30.1607 32.4119 30.5573 32.0257C30.9535 31.6396 31.4894 31.4293 32.0431 31.4424C32.7661 31.46 33.427 31.8546 33.7833 32.4821C34.14 33.1096 34.14 33.8778 33.7833 34.5053C33.427 35.1327 32.7661 35.5276 32.0431 35.5449V35.5449Z" fill="#EB6677"/>
<path d="M32.1546 23.9926C33.6012 23.9917 35.0279 24.329 36.3202 24.9775L37.6814 23.6196C36.0078 22.6651 34.1128 22.1648 32.1849 22.1692C29.151 22.1669 26.2384 23.3566 24.0778 25.4804C21.9171 27.6044 20.6822 30.4917 20.6406 33.5173C20.6406 33.6408 20.6559 33.7604 20.6597 33.883H22.4882C22.4832 33.7595 22.4688 33.6384 22.4688 33.5138C22.5037 30.9755 23.54 28.5528 25.3526 26.7707C27.1655 24.9886 29.6093 23.9905 32.1546 23.9925L32.1546 23.9926Z" fill="#EB6677"/>
</svg>
