<svg width="64" height="64" viewBox="0 0 64 64" fill="none" xmlns="http://www.w3.org/2000/svg">
<rect width="63.9996" height="63.9993" rx="10" fill="#FCEBED"/>
<path d="M30.2497 29.5C33.9771 29.5 36.9994 26.4774 36.9994 22.7503C36.9994 19.0226 33.9768 16 30.2497 16C26.5214 16 23.5 19.0226 23.5 22.7503C23.5 26.4775 26.5217 29.5 30.2497 29.5ZM30.2497 17C33.4202 17 35.9994 19.5797 35.9994 22.7503C35.9994 25.9208 33.4199 28.5 30.2497 28.5C27.0795 28.5 24.5 25.9207 24.5 22.7503C24.5 19.5798 27.0795 17 30.2497 17Z" fill="#EB6677" stroke="#EF798A" stroke-width="0.75"/>
<path d="M47.5939 32.5873C47.5524 32.5815 43.3961 31.9614 41.3607 29.6599C41.273 29.5608 41.1469 29.5027 41.0137 29.5001C41.0083 29.4998 41.0029 29.4998 40.9976 29.4998C40.8724 29.4998 40.7478 29.5541 40.6596 29.6454C40.6496 29.6559 40.2447 30.0695 39.5632 30.5702C38.3203 29.6673 36.9085 28.9717 35.3987 28.5352C35.0793 28.82 34.7357 29.078 34.3723 29.3075C35.9094 29.6535 37.3739 30.2897 38.6649 31.1658C37.6255 31.7834 36.259 32.3546 34.7556 32.3546C34.6714 32.3546 34.5873 32.3528 34.5022 32.3491C34.4942 32.3486 34.4864 32.3484 34.4786 32.3484C34.229 32.3484 34.0201 32.5446 34.0078 32.7939C34.0029 32.895 33.8942 35.2991 34.646 38.0651C35.6565 41.7834 37.7549 44.3434 40.7145 45.4685C40.769 45.4893 40.8271 45.4998 40.8849 45.4998C40.9255 45.4998 40.9661 45.4946 41.0061 45.4842C41.0632 45.4692 42.175 45.1685 43.4998 44.1165V45.6464C43.4998 46.3926 42.8895 46.9997 42.1396 46.9997H18.3596C17.6098 46.9997 16.9998 46.3926 16.9998 45.6464V39.943C16.9998 36.9758 18.269 34.2042 20.5741 32.139C22.1272 30.7475 24.066 29.7714 26.1275 29.3073C25.7639 29.0781 25.4206 28.8198 25.1011 28.5352C20.01 30.0082 16 34.3861 16 39.9426V45.646C16 46.9447 17.0565 47.9993 18.3598 47.9993H42.1392C43.4427 47.9993 44.4997 46.9447 44.4997 45.646V43.1998C46.0446 41.5754 47.8953 38.5031 47.9995 33.0592C48.0044 32.8235 47.8303 32.621 47.5937 32.5869L47.5939 32.5873ZM43.7539 42.5342C42.5307 43.811 41.3187 44.3203 40.9028 44.4674C38.3425 43.4275 36.5149 41.1272 35.6113 37.8023C35.0912 35.8887 35.0061 34.1708 34.9997 33.3498C37.8008 33.2516 40.0972 31.4922 40.9848 30.7094C42.8794 32.5213 45.8491 33.2648 46.9871 33.4934C46.7994 38.3579 45.138 41.0894 43.7541 42.5339L43.7539 42.5342Z" fill="#EB6677" stroke="#EF798A" stroke-width="0.75"/>
<path d="M38.3412 36.9136C38.139 36.7249 37.8227 36.7361 37.6346 36.9377C37.4462 37.1397 37.4569 37.456 37.6587 37.6443L39.7692 39.6153C39.8654 39.7053 39.9879 39.7501 40.1105 39.7501C40.2301 39.7501 40.3498 39.7075 40.4448 39.6218L44.3343 36.1218C44.5395 35.9372 44.5562 35.6209 44.3716 35.4156C44.1868 35.2102 43.8707 35.1937 43.6654 35.3783L40.1167 38.5721L38.3412 36.9136Z" fill="#EB6677" stroke="#EF798A" stroke-width="0.5"/>
</svg>
