<svg width="64" height="64" viewBox="0 0 64 64" fill="none" xmlns="http://www.w3.org/2000/svg">
<rect width="64" height="64" rx="10" fill="#FCEBED"/>
<path d="M47.75 34.2857V40.5714C47.75 42.2857 46.7375 43.7714 45.1625 44.5714L43.25 45.4857L41.3375 44.5714C39.7625 43.8857 38.75 42.2857 38.75 40.5714V34.2857H47.75ZM50 32H36.5V40.5714C36.5 43.0857 37.9625 45.4857 40.325 46.6286L43.25 48L46.175 46.6286C48.5375 45.4857 50 43.2 50 40.5714V32Z" fill="#EB6677"/>
<path d="M32 42.2857H22.4375C17.825 42.2857 14 38.4 14 33.7143C14 29.4857 17.0375 26.0571 20.975 25.2571C21.9875 19.8857 26.6 16 32 16C38.1875 16 43.25 21.1429 43.25 27.4286H41C41 22.4 36.95 18.2857 32 18.2857C27.3875 18.2857 23.5625 21.8286 23 26.4V27.4286H21.9875C18.725 27.6571 16.25 30.4 16.25 33.7143C16.25 37.1429 19.0625 40 22.4375 40H32V42.2857Z" fill="#EB6677"/>
</svg>
