<svg width="64" height="64" viewBox="0 0 64 64" fill="none" xmlns="http://www.w3.org/2000/svg">
<rect width="64" height="64" rx="10" fill="#FCEBED"/>
<path d="M39.3052 24.4448V24.6948H39.5552H47.4989L47.4989 24.6948H48.0556C48.2398 24.6948 48.4165 24.7679 48.5467 24.8981C48.6768 25.0283 48.75 25.205 48.75 25.3892V48.0556C48.75 48.2398 48.6768 48.4165 48.5467 48.5467C48.4165 48.6769 48.2398 48.75 48.0556 48.75H25.3892C25.205 48.75 25.0283 48.6769 24.8981 48.5467C24.7679 48.4165 24.6948 48.2398 24.6948 48.0556V39.5552V39.3052H24.4448H15.9444C15.7602 39.3052 15.5835 39.2321 15.4533 39.1019L15.2767 39.2785L15.4533 39.1019C15.3231 38.9717 15.25 38.7951 15.25 38.6108V15.9444C15.25 15.5607 15.5607 15.25 15.9444 15.25H38.6108C38.795 15.25 38.9717 15.3231 39.1019 15.4533L39.2787 15.2765L39.1019 15.4533C39.2321 15.5835 39.3052 15.7602 39.3052 15.9444V24.4448ZM16.8888 16.639H16.6388V16.889V37.6669V37.9169H16.8888H37.6667H37.9167V37.6669V16.889V16.639H37.6667H16.8888ZM47.111 47.3612H47.361V47.1112L47.3607 26.3336L47.3607 26.0836H47.1107H39.555H39.305V26.3336V38.6111C39.305 38.7953 39.2318 38.972 39.1017 39.1021L39.2784 39.2789L39.1017 39.1021C38.9715 39.2323 38.7948 39.3055 38.6106 39.3055H26.3331H26.0831V39.5555V47.1112V47.3612H26.3331H47.111Z" fill="#EB6677" stroke="#EF798A" stroke-width="0.5"/>
<path d="M26.2669 25.7506L26.0362 25.6543C25.9273 25.9154 25.6715 26.0851 25.3887 26.0841L25.3877 26.0841C25.2034 26.0803 25.0273 26.0086 24.8932 25.8827C24.7662 25.7494 24.6947 25.5727 24.6934 25.3883C24.6922 25.1053 24.8619 24.8499 25.1229 24.7413L25.123 24.7413C25.3843 24.6324 25.6853 24.692 25.8852 24.8919C26.0852 25.0922 26.1448 25.3932 26.0361 25.6546L26.2669 25.7506ZM26.2669 25.7506C26.1625 26.0009 25.9587 26.1894 25.7126 26.278L26.062 24.7152C26.3336 24.987 26.4145 25.3958 26.2669 25.7506Z" fill="#EB6677" stroke="#EF798A" stroke-width="0.5"/>
<path d="M26.0822 33.8897V34.8344C26.0822 35.2178 25.7712 35.5288 25.3878 35.5288C25.0041 35.5288 24.6934 35.2178 24.6934 34.8344V33.8897C24.6934 33.5063 25.0041 33.1953 25.3878 33.1953C25.7712 33.1953 26.0822 33.5063 26.0822 33.8897Z" fill="#EB6677" stroke="#EF798A" stroke-width="0.5"/>
<path d="M25.8788 30.602L26.0557 30.7786L25.8789 30.6018C25.7487 30.732 25.572 30.8052 25.3878 30.8052H25.3878C25.2035 30.8052 25.0268 30.732 24.8967 30.6018L24.7199 30.7786L24.8968 30.602C24.7664 30.4714 24.6934 30.2949 24.6934 30.1108V29.1661C24.6934 28.7826 25.0041 28.4717 25.3878 28.4717C25.7712 28.4717 26.0822 28.7827 26.0822 29.1661V30.1108C26.0822 30.2949 26.0092 30.4714 25.8788 30.602Z" fill="#EB6677" stroke="#EF798A" stroke-width="0.5"/>
<path d="M30.112 26.0842H29.1673C28.7839 26.0842 28.4729 25.7731 28.4729 25.3897C28.4729 25.0061 28.7839 24.6953 29.1673 24.6953H30.112C30.4955 24.6953 30.8064 25.0061 30.8064 25.3897C30.8064 25.7732 30.4954 26.0842 30.112 26.0842Z" fill="#EB6677" stroke="#EF798A" stroke-width="0.5"/>
<path d="M34.8324 26.0842H33.8878C33.5044 26.0842 33.1934 25.7731 33.1934 25.3897C33.1934 25.0061 33.5043 24.6953 33.8878 24.6953H34.8324C35.2159 24.6953 35.5269 25.0061 35.5269 25.3897C35.5269 25.7732 35.2158 26.0842 34.8324 26.0842Z" fill="#EB6677" stroke="#EF798A" stroke-width="0.5"/>
</svg>
